<?xml version="1.0" encoding="UTF-8"?>
<svg id="Camada_1" xmlns="http://www.w3.org/2000/svg" version="1.1" viewBox="0 0 298 129">
  <!-- Generator: Adobe Illustrator 29.3.1, SVG Export Plug-In . SVG Version: 2.1.0 Build 151)  -->
  <defs>
    <style>
      .st0 {
        stroke-width: 8px;
      }

      .st0, .st1, .st2 {
        stroke: #fff;
      }

      .st0, .st2 {
        fill: none;
      }

      .st3, .st1 {
        fill: #fff;
      }

      .st4 {
        fill: #b3ff3b;
      }

      .st1 {
        stroke-miterlimit: 10;
      }
    </style>
  </defs>
  <path class="st3" d="M113.1,81.3v5.8c0,6.8-1.8,12.1-5.3,16-3.5,3.9-8.4,5.9-14.9,5.9s-11.4-2-14.9-5.9c-3.5-3.9-5.3-9.2-5.3-16v-5.8c0-6.7,1.7-11.9,5.2-15.8,3.5-4,8.5-6,15-6s11.4,2,14.9,6c3.5,3.9,5.3,9.2,5.3,15.8ZM104.9,81.3c0-4.5-1-8.1-3.1-10.7-2-2.6-5-3.9-8.9-3.9s-6.8,1.3-8.9,3.9c-2,2.6-3.1,6.1-3.1,10.7v5.8c0,4.7,1,8.4,3.1,10.9,2.1,2.6,5.1,3.8,8.9,3.8s6.9-1.3,8.9-3.8c2-2.6,3.1-6.2,3.1-10.9v-5.8ZM153.5,106.3c-3.6,1.8-7.4,2.7-11.4,2.7s-6.2-.7-8.2-2.1c-1.9-1.4-3.3-3.3-4.1-5.7-.8-2.4-1.2-5-1.2-7.9v-25.9h-8.3v-6.9h8.3v-13.2h7.9v13.2h15.6v6.9h-15.6v25.6c0,3.3.5,5.6,1.6,6.9,1.2,1.2,2.9,1.8,5.3,1.8s2.3-.1,3.6-.4c1.3-.3,2.7-.8,4.1-1.5l2.4,6.4ZM198.6,108.5c-2.9,0-5.3-.7-7.1-2-1.7-1.3-2.9-3-3.6-5-3.1,2.8-6,4.7-8.5,5.9-2.6,1.1-5.1,1.6-7.7,1.6-4.2,0-7.2-1.3-9.2-4-2-2.7-3-6-3-9.9s.5-5,1.4-7c1-2,2.6-3.6,4.9-4.8,2.3-1.2,5.4-1.8,9.3-1.8s3.6.1,5.7.4c2,.2,4.1.4,6.2.8v-6.4c0-3.6-.8-6-2.4-7.3-1.5-1.3-3.8-2-6.8-2s-8.7,1.1-13.7,3.4l-2.5-6.5c2.9-1.3,5.8-2.4,8.4-3.1s5.4-1.1,8.2-1.1c4.5,0,7.9.7,10.3,2.2,2.4,1.5,4,3.4,4.9,5.9.9,2.4,1.3,5.1,1.3,8v20.5c0,1.5.3,2.7.9,3.7.6,1,1.7,1.4,3.5,1.4h1.1v7.2h-1.4ZM167.2,94.9c0,2.2.5,3.9,1.5,5.3s2.5,2,4.4,2,3.6-.5,5.8-1.4c2.2-1,4.9-3,8.1-6v-6c-4.4-.7-8.2-1.1-11.5-1.1s-5.1.6-6.3,1.8-1.9,3-1.9,5.5Z"/>
  <path class="st4" d="M203.7,52l16.6-9.3h9.6v65.3h-11.3v-52.6l-9.8,5.4-5.1-8.7ZM291.3,68.4v13.7c0,8.3-2,14.9-5.9,19.7-3.9,4.7-9.6,7.1-17.2,7.1s-13.3-2.4-17.2-7.1c-3.9-4.8-5.9-11.4-5.9-19.7v-13.7c0-8.3,2-14.8,5.9-19.6,3.9-4.7,9.6-7.1,17.2-7.1s13.3,2.4,17.2,7.1c3.9,4.7,5.9,11.3,5.9,19.6ZM279.6,68.4c0-10.7-3.8-16-11.4-16s-6.8,1.3-8.6,4c-1.9,2.7-2.8,6.7-2.8,12v13.7c0,5.3.9,9.3,2.8,12.1,1.9,2.7,4.7,4,8.6,4,7.6,0,11.4-5.4,11.4-16.1v-13.7Z"/>
  <path class="st0" d="M4,108.5l17-39.2c.4-.8,1.5-.8,1.9,0l13.8,36.9c.3.8,1.5.9,1.8,0L84,6M84,6l-17.5,5.5M84,6l3.2,8,3.2,8"/>
  <path class="st2" d="M65,8l2.5,7.5,9.5-3,7,4,3,7,7-3-7.5-19.5-21.5,7Z"/>
  <polygon class="st1" points="84 6.4 82.4 2.5 86.3 1.3 87.8 4.7 84 6.4"/>
</svg>